HIERARCHY
ROOT Hips
{
  OFFSET -310.743 85.7549 305.375
  CHANNELS 6 Xposition Yposition Zposition Zrotation Xrotation Yrotation
  JOINT ToSpine
  {
    OFFSET -0.0105055 1.38907 -7.13956
    CHANNELS 3 Zrotation Xrotation Yrotation
    JOINT Spine
    {
      OFFSET 0.0105055 10 1
      CHANNELS 3 Zrotation Xrotation Yrotation
      JOINT Spine1
      {
        OFFSET 0 12 1.60637
        CHANNELS 3 Zrotation Xrotation Yrotation
        JOINT Neck
        {
          OFFSET 0 27 2.26658
          CHANNELS 3 Zrotation Xrotation Yrotation
          JOINT Head
          {
            OFFSET 0 9 2.12705
            CHANNELS 3 Zrotation Xrotation Yrotation
            End Site
            {
              OFFSET 0 11 2
            }
          }
        }
        JOINT LeftShoulder
        {
          OFFSET 8 19.6109 2.86452
          CHANNELS 3 Zrotation Xrotation Yrotation
          JOINT LeftArm
          {
            OFFSET 12 1 0.681055
            CHANNELS 3 Zrotation Xrotation Yrotation
            JOINT LeftForeArm
            {
              OFFSET 19 0 -1.52608
              CHANNELS 3 Zrotation Xrotation Yrotation
              JOINT LeftHand
              {
                OFFSET 23 0 0
                CHANNELS 3 Zrotation Xrotation Yrotation
                End Site
                {
                  OFFSET 10 0 0
                }
              }
            }
          }
        }
        JOINT RightShoulder
        {
          OFFSET -8 19.6109 2.86452
          CHANNELS 3 Zrotation Xrotation Yrotation
          JOINT RightArm
          {
            OFFSET -12 1 0.681055
            CHANNELS 3 Zrotation Xrotation Yrotation
            JOINT RightForeArm
            {
              OFFSET -19 0 -1.52608
              CHANNELS 3 Zrotation Xrotation Yrotation
              JOINT RightHand
              {
                OFFSET -23 0 0
                CHANNELS 3 Zrotation Xrotation Yrotation
                End Site
                {
                  OFFSET -10 0 0
                }
              }
            }
          }
        }
      }
    }
  }
  JOINT LeftUpLeg
  {
    OFFSET 9 -7.17245 0
    CHANNELS 3 Zrotation Xrotation Yrotation
    JOINT LeftLeg
    {
      OFFSET 0 -44.1113 0
      CHANNELS 3 Zrotation Xrotation Yrotation
      JOINT LeftFoot
      {
        OFFSET 0 -36.1829 0
        CHANNELS 3 Zrotation Xrotation Yrotation
        JOINT LeftToeBase
        {
          OFFSET 0 -4.84184 13
          CHANNELS 3 Zrotation Xrotation Yrotation
          End Site
          {
            OFFSET 0 1 6
          }
        }
      }
    }
  }
  JOINT RightUpLeg
  {
    OFFSET -9 -7.17245 0
    CHANNELS 3 Zrotation Xrotation Yrotation
    JOINT RightLeg
    {
      OFFSET 0 -44.0551 0
      CHANNELS 3 Zrotation Xrotation Yrotation
      JOINT RightFoot
      {
        OFFSET 0 -36.1469 0
        CHANNELS 3 Zrotation Xrotation Yrotation
        JOINT RightToeBase
        {
          OFFSET 0 -4.92256 13
          CHANNELS 3 Zrotation Xrotation Yrotation
          End Site
          {
            OFFSET 0 1 6
          }
        }
      }
    }
  }
}
MOTION
Frames:	19
Frame Time:	0.0333333
4.49846 70.2706 -28.8065 -5.4199 -6.27129 137.586 0 0 0 3.47623 28.8081 -0.677962 -7.80485 2.7646 2.06619 7.7625 -15.5301 1.19705 -4.52613 -5.20152 3.2165 -10.7927 3.74898 -17.0641 -18.3082 -4.11069 -84.3995 16.794 35.7937 -27.2461 8.74266 -0.417781 -5.37563 12.8113 4.75164 20.1156 15.4668 -15.0764 53.1312 -15.7635 12.5807 52.3456 -9.30282 -0.80046 9.8474 14.8726 -60.0302 19.9998 -179.99 77.6259 167.243 21.5947 -41.0188 8.15889 1.43903 -11.8788 -4.7269 1.2929 -42.755 -4.76821 179.928 78.5427 167.628 -32.0925 -49.6203 -15.145 6.09785 -25.5332 -8.61773 
8.64817 72.6766 -33.1012 -7.18985 -7.16515 138.677 0 0 0 3.55814 27.7866 -0.506889 -8.51794 1.21956 2.1219 8.16634 -15.4346 0.421767 -4.58166 -6.09369 2.52285 -9.54147 3.51783 -17.0617 -20.885 -5.80018 -86.3053 25.2467 39.681 -36.4332 7.58579 -0.440652 -6.87928 12.1825 4.55599 19.7962 18.3407 -19.0905 50.4835 -17.7485 11.3435 58.4285 -8.20788 -0.667774 9.16561 11.5504 -54.2318 17.0824 179.79 81.3453 165.146 23.3651 -44.8536 9.76031 1.4724 -10.9035 -5.11484 0.862744 -39.8684 -5.40041 -179.981 81.0511 165.892 -31.6459 -40.5434 -11.9375 7.75819 -34.46 -9.58672 
13.2715 75.4087 -37.6438 -7.67958 -8.15184 138.879 0 0 0 3.54177 27.2411 -0.187638 -8.48736 -0.0294463 2.24549 9.02345 -16.0703 0.333246 -4.48359 -6.21846 2.5095 -9.8328 3.40287 -16.1402 -18.2706 -7.25506 -87.3293 29.7373 37.5583 -43.1436 7.53544 -0.617008 -9.32543 12.394 4.5257 19.4292 19.6915 -20.3611 46.3131 -17.0129 8.0131 65.5066 -8.01991 -0.528454 7.59201 11.1261 -46.7895 16.55 -179.413 86.6295 163.375 24.9464 -46.0734 10.7472 1.55807 -14.0495 -5.09867 2.99653 -38.339 -3.42526 -179.934 82.0428 166.723 -29.9565 -25.9711 -7.05983 9.62812 -39.9789 -6.87685 
18.1542 78.3409 -42.4328 -7.23557 -9.41673 139.629 0 0 0 3.31847 26.5698 -0.35606 -6.48624 -1.0416 1.47 9.87511 -16.128 0.677221 -3.78336 -6.78878 2.8293 -11.3258 3.48935 -15.178 -14.161 -8.86162 -86.7219 32.3093 32.7925 -49.4278 7.86968 -0.589904 -8.44552 14.5689 5.05177 19.6945 18.6778 -18.2478 37.7101 -17.852 4.48525 76.3519 -7.369 -0.438149 6.71573 11.4987 -39.2871 15.7971 0.0926705 87.0953 -16.1911 25.168 -44.3097 10.382 1.64554 -19.6882 -4.74855 5.48459 -38.6429 -1.55307 179.822 81.1692 171.695 -31.2607 -12.6948 -3.52969 7.19353 -28.0605 -4.60612 
23.3458 80.8306 -47.4505 -7.51176 -10.7826 140.237 0 0 0 1.95205 24.736 -0.538655 -4.44275 -1.50289 0.559303 12.3122 -15.9306 0.912486 -4.56227 -7.355 3.56973 -10.8784 3.3249 -14.6983 -11.0299 -10.4937 -86.5225 38.0593 29.8217 -57.5841 8.49355 -0.30253 -4.33089 18.8659 5.84073 19.2233 17.7613 -12.583 26.3451 -19.1346 0.540241 88.4433 -5.19927 -0.248529 5.46509 12.0726 -32.2561 15.6719 0.216374 80.1921 -17.7893 24.4654 -41.4838 9.39543 1.81663 -24.146 -4.93547 7.55231 -40.4194 0.416292 -179.953 81.0922 172.376 -33.2434 -13.1576 -3.96215 5.43228 -21.3347 -5.98971 
28.7418 82.8317 -52.7102 -8.58674 -12.2656 140.523 0 0 0 0.166914 22.9429 -0.953881 -2.55267 -3.07665 -0.542232 13.606 -15.8232 1.36018 -5.15167 -6.82347 4.32691 -8.6837 2.89508 -14.2765 -10.7079 -11.6353 -87.0881 41.1359 26.7733 -62.7255 8.13084 -0.273974 -4.23927 22.2712 6.25224 18.1257 20.0848 -3.5963 13.8759 -18.4852 -2.50858 97.459 -3.4752 -0.154421 5.15196 12.0617 -25.4586 16.1031 -0.187139 71.9372 -17.8285 24.3179 -38.1683 8.51751 1.90359 -28.4272 -4.79892 8.96104 -44.1838 1.80893 179.661 84.1487 168.162 -32.0934 -20.3444 -5.88919 5.89951 -24.3616 -7.71431 
34.1836 84.7065 -58.4727 -8.30102 -13.5299 140.682 0 0 0 -0.564091 21.8156 -1.03803 0.810695 -3.96411 -1.23281 11.5117 -16.8475 2.02721 -4.50145 -5.8038 4.45542 -7.29795 2.66271 -14.2277 -13.3272 -12.6105 -88.527 43.3294 24.6012 -66.194 5.76119 -0.341564 -6.54261 21.4216 5.60921 16.4124 27.6514 5.69586 0.908747 -19.7111 -3.99013 100.991 -2.28114 -0.107204 5.40941 12.5441 -16.9977 16.7238 0.0264285 62.1007 -18.1749 24.6927 -32.2161 7.19884 2.22613 -34.3626 -3.21047 10.4363 -48.5259 2.89657 17.901 89.8336 -32.5802 -32.399 -22.968 -6.7703 5.34341 -21.6501 -7.66474 
39.8908 86.3419 -64.9074 -7.14998 -13.9497 139.806 0 0 0 1.14781 21.5903 -1.70104 1.70043 -4.67735 -1.58877 9.29675 -18.9717 3.26283 -3.48862 -3.49359 4.9494 -6.94063 2.56379 -13.9288 -13.679 -12.5245 -88.826 43.7976 22.2549 -68.4537 5.56438 -0.260633 -5.37038 20.3551 5.3794 16.3726 38.1568 10.8393 -13.6693 -20.0255 -3.21468 98.7468 -2.52516 -0.140213 6.31394 13.0605 -6.74187 17.8185 0.106363 50.8423 -20.2071 21.4882 -23.466 4.56116 2.65141 -41.6383 -2.89241 12.107 -51.9699 4.82775 -0.384161 81.748 -12.0055 -32.4753 -23.666 -6.98798 5.29596 -21.3335 -7.36819 
45.954 87.7427 -71.8526 -6.65858 -13.9019 138.68 0 0 0 4.384 20.8544 -3.63153 -0.409916 -5.52973 -2.49091 8.14872 -21.155 5.0823 -2.36234 -0.127737 6.14167 -7.3098 2.45839 -12.88 -13.5523 -10.1593 -88.1331 42.7456 21.7423 -68.1654 5.34945 -0.275337 -5.93556 21.8195 6.44407 19.0812 46.8251 9.32767 -27.3896 -18.4183 -0.680405 92.0423 -3.9987 -0.264643 7.59081 12.0621 2.73514 17.283 -0.0557348 39.5287 -21.2424 16.7935 -10.7998 1.63746 2.64782 -48.7967 -4.6019 11.8773 -55.2484 4.75776 0.048225 71.5766 -7.20771 -31.6279 -21.178 -6.03694 5.1762 -20.8117 -7.51149 
52.3914 88.5383 -78.9371 -6.31046 -13.9922 137.126 0 0 0 6.35812 19.0135 -4.84682 -1.21564 -5.15397 -3.0141 7.51675 -23.4895 7.20273 -2.07596 3.00466 7.78623 -8.47689 2.56225 -12.4495 -15.8705 -5.78924 -86.2677 42.1927 22.5872 -67.0433 3.93246 -0.241349 -6.98938 23.1686 7.54809 21.7247 51.2601 4.83188 -34.973 -17.9713 2.10813 83.5299 -5.99751 -0.477958 9.01625 10.5883 10.1648 12.9301 -0.0240828 31.9156 -21.2352 16.7717 0.80212 -0.171208 2.33004 -37.8797 -4.66803 12.1152 -57.5325 4.18418 -0.283027 59.7524 -0.380211 -31.4812 -14.4946 -4.12699 4.94546 -19.7925 -7.68553 
58.8289 88.2665 -86.0282 -5.91897 -13.131 135.571 0 0 0 6.86482 17.3317 -5.3517 -1.23411 -4.03614 -3.07363 7.40682 -25.2185 8.62357 -2.44439 4.65139 9.01999 -10.6148 2.92472 -12.7386 -18.8649 -0.620908 -84.177 42.3384 25.0544 -65.0777 4.28433 -0.21914 -6.0564 23.8531 7.94231 22.4698 52.7435 1.4573 -36.2968 -19.3268 5.38894 75.009 -7.93319 -0.663476 9.60746 7.75115 15.5692 3.81318 0.0369749 31.4854 -17.4073 17.4109 4.33459 -0.668206 1.47828 -19.1045 -2.30027 11.6449 -58.1502 2.77179 0.0318562 49.6803 5.65562 -30.1977 -11.629 -3.10059 4.44714 -17.0559 -5.94151 
65.0087 86.9667 -92.4651 -4.05944 -12.4314 134.065 0 0 0 8.27379 15.6675 -5.22142 -1.2875 -1.82598 -2.57026 6.5849 -24.8806 8.9073 -2.35657 4.37096 9.22212 -13.7746 3.4271 -12.915 -21.0908 6.00876 -81.3405 41.4086 28.7327 -61.4098 4.8291 -0.208501 -4.91893 25.0628 7.99228 21.6964 51.8166 -0.713082 -34.0262 -19.6209 8.99615 66.3165 -9.34302 -0.754007 9.19036 6.31902 19.0637 -2.34699 0.0756388 38.4377 -11.4712 19.6812 1.63942 -0.243042 1.3853 -19.1132 -1.19962 13.6467 -56.6918 3.20423 0.0654298 43.1893 7.71355 -25.5611 -8.04052 -1.91443 4.63309 -18.0949 -7.57263 
70.8833 86.2852 -98.2197 -1.13209 -11.5181 133.319 0 0 0 10.154 15.2724 -4.44699 -0.711324 0.585091 -2.57707 4.80503 -21.7337 8.58317 -1.44861 2.5209 8.76833 -18.7753 4.16253 -12.8036 -21.4524 13.6941 -76.2133 35.7433 30.0857 -55.1469 3.55588 -0.153622 -4.91697 26.165 7.81615 20.3542 50.3579 -2.18139 -30.0052 -18.5137 11.8452 58.4921 -8.86719 -0.764411 9.88901 6.54102 19.75 -3.25245 -0.250948 50.3525 -9.45842 20.8358 -1.36889 0.228357 1.58318 -22.3937 -0.864061 14.4881 -54.1245 1.43561 0.0676222 44.9164 7.71624 -18.165 1.76328 0.28298 3.41237 -11.5955 -9.20003 
76.7848 85.3736 -103.925 0.186742 -9.70633 132.035 0 0 0 10.3933 14.9768 -3.10741 -1.03374 0.543517 -1.76973 2.90804 -18.0334 7.89736 -1.22748 0.140427 8.06231 -24.6342 4.7956 -11.9686 -22.222 20.7785 -68.6864 33.4088 32.8647 -50.5592 3.09124 -0.115554 -4.32478 26.0822 7.1203 18.3419 49.5856 -2.024 -23.2452 -17.4006 14.1435 52.0565 -7.50826 -0.652909 9.88539 6.70838 16.3333 0.686559 0.0812155 65.9897 -7.73985 22.1295 -2.2069 0.432055 1.70376 -24.5063 -0.214355 13.674 -52.531 -1.19168 -0.240973 56.8229 6.59912 -19.8018 -0.257477 -0.197422 2.58132 -7.89306 -8.29711 
82.1921 84.6229 -108.806 1.71635 -9.97983 129.834 0 0 0 11.6333 14.8056 -1.95058 -1.47709 -0.438944 -0.184443 1.93741 -18.7128 7.98813 -1.9233 0.708685 8.16427 -29.5041 4.95465 -10.3805 -27.8266 24.8087 -56.6639 34.4087 35.8873 -49.4443 3.07759 -0.0990153 -3.66231 25.8165 6.61255 16.9708 47.4709 0.26716 -12.9195 -14.8777 14.3504 46.9867 -7.88806 -0.64598 9.34406 10.3875 7.94137 6.56396 2.52895 83.6468 -3.88921 24.912 -4.56424 0.993738 1.83052 -26.1762 0.0484989 15.6028 -48.8752 -2.28218 0.0848939 64.6544 5.90246 -27.9645 -9.04486 -2.21903 3.44316 -12.3798 -9.47484 
86.8962 85.1415 -112.915 2.92095 -9.93054 128.884 0 0 0 11.5935 15.3951 -1.21796 -0.825793 -0.506977 0.302639 1.66416 -20.2137 8.03416 -2.38205 1.52618 8.21043 -32.3052 4.82484 -9.02666 -34.8693 23.2991 -40.4918 31.3495 34.0744 -47.397 1.98188 -0.0613895 -3.59576 25.8776 6.58852 16.859 43.535 2.09468 -1.72753 -12.8456 13.4934 44.3417 -8.75223 -0.754904 9.84056 13.7832 -4.00102 8.61547 -179.272 81.6342 -177.096 25.3749 -8.77781 1.99198 1.55085 -22.4069 -0.401137 15.6488 -42.8016 -4.05529 -0.0314897 65.9348 6.43753 -32.689 -14.0546 -4.13438 3.75941 -13.9163 -10.8112 
91.2651 85.8987 -116.789 2.14157 -8.40325 129.706 0 0 0 9.3099 14.4317 -0.793851 -0.66746 -0.750444 0.272526 1.40839 -17.9654 7.17512 -2.61291 0.383849 7.49483 -32.568 4.48157 -8.06553 -38.1039 21.5344 -26.8335 27.4558 32.5216 -44.0235 1.43702 -0.0295994 -2.52724 25.713 6.89188 17.8933 40.6205 1.06659 6.61692 -9.52834 10.0094 44.001 -9.01135 -0.773876 9.80474 13.7389 -18.1177 7.82494 -179.939 74.2047 -175.961 28.5453 -9.36953 2.3708 1.64871 -23.4118 -0.916668 12.087 -37.6837 -6.97364 0.0182961 66.2338 5.09228 -37.8081 -17.7249 -6.12362 4.46208 -18.2805 -11.6348 
95.4821 87.346 -120.731 1.20582 -7.40901 129.637 0 0 0 10.1562 13.7472 0.100227 -4.27761 -1.88908 1.75817 2.08488 -15.0362 5.58581 -3.31641 -0.0676627 6.36856 -30.8353 4.20687 -7.87471 -38.5201 22.1402 -16.9065 22.9661 31.9138 -38.7168 1.96133 -0.043205 -2.38085 24.9806 6.75987 17.9475 39.8906 -1.76632 13.7998 -8.87745 9.41119 43.6874 -9.05825 -0.726069 9.14699 12.8304 -31.1294 7.35542 -179.856 75.5174 -174.669 30.0445 -9.93949 2.6734 1.71314 -24.3428 -1.47306 9.77374 -31.7658 -8.42756 -0.0537831 63.6031 4.52404 -39.3485 -21.1547 -7.59139 4.51254 -17.9088 -9.53244 
100.203 89.5476 -125.2 0.821259 -5.44571 128.394 0 0 0 10.8047 13.4714 1.92764 -7.83098 -2.08843 4.28248 1.77486 -12.6558 3.67919 -3.32255 -0.18104 4.55621 -30.3582 4.1549 -7.87583 -36.0761 23.3186 -9.29168 18.9217 31.204 -33.5504 1.62443 -0.0500148 -3.60333 23.1634 6.02342 16.7344 40.3343 -4.08226 20.7332 -8.71253 9.96879 41.5165 -7.85707 -0.593909 8.61917 11.3548 -38.3494 8.17887 -179.216 84.756 -172.849 27.4304 -13.0883 3.19432 1.51545 -20.2797 -2.02028 8.48334 -23.0254 -6.57739 0.0585726 57.8504 3.3121 -37.7796 -24.0515 -8.35284 4.3133 -16.7944 -7.89357 
